<svg width="20" height="20" viewBox="0 0 20 20" fill="none" xmlns="http://www.w3.org/2000/svg">
<path d="M18.5714 0.949387H1.42411C0.638393 0.949387 0 1.56397 0 2.31841L0 18.5687C0 19.3232 0.638393 19.9377 1.42411 19.9377H18.5714C19.3571 19.9377 20 19.3232 20 18.5687V2.31841C20 1.56397 19.3571 0.949387 18.5714 0.949387ZM6.04464 17.2251H3.08036V8.16327H6.04911V17.2251H6.04464ZM4.5625 6.92563C3.61161 6.92563 2.84375 6.19238 2.84375 5.29382C2.84375 4.39526 3.61161 3.66201 4.5625 3.66201C5.50893 3.66201 6.28125 4.39526 6.28125 5.29382C6.28125 6.19662 5.51339 6.92563 4.5625 6.92563ZM17.1562 17.2251H14.192V12.8171C14.192 11.766 14.1696 10.4139 12.6518 10.4139C11.1071 10.4139 10.8705 11.5583 10.8705 12.7408V17.2251H7.90625V8.16327H10.75V9.4009H10.7902C11.1875 8.68884 12.1563 7.93863 13.5982 7.93863C16.5982 7.93863 17.1562 9.81627 17.1562 12.2576V17.2251Z" fill="#F5F5F5"/>
</svg>
