<svg width="20" height="16" viewBox="0 0 20 16" fill="none" xmlns="http://www.w3.org/2000/svg">
<path d="M20 4.51861V12.9004C20 14.3495 18.7632 15.5238 17.2368 15.5238H2.76316C2.03032 15.5238 1.3275 15.2474 0.80931 14.7554C0.291117 14.2634 0 13.5962 0 12.9004L0 4.51861L9.68316 9.57547C9.88053 9.6784 10.12 9.6784 10.3168 9.57547L20 4.51811V4.51861ZM17.2368 0.533081C17.9581 0.533145 18.6508 0.800991 19.1669 1.27941C19.683 1.75782 19.9816 2.40887 19.9989 3.09349L10 8.31525L0.00105256 3.09299L0.00210536 3.04802C0.0315804 2.37157 0.335372 1.73213 0.849952 1.26342C1.36453 0.794704 2.05005 0.533018 2.76316 0.533081H17.2368Z" fill="#F5F5F5"/>
</svg>
